<svg xmlns="http://www.w3.org/2000/svg" viewBox="0 0 24 24" aria-hidden="true" fill="currentColor">
  <path fill-rule="evenodd" d="M16.8 18H7.2C6.538 18 6 17.46 6 16.8V8c0-.662.449-1.2 1-1.2h.6v.8H7c-.069 0-.2.156-.2.4v8.8c0 .22.18.4.4.4h9.6a.4.4 0 0 0 .4-.4V8c0-.244-.131-.4-.2-.4h-.6v-.8h.6c.551 0 1 .538 1 1.2v8.8c0 .661-.538 1.2-1.2 1.2Z" clip-rule="evenodd"/>
  <path fill-rule="evenodd" d="M8.8 8.4a.4.4 0 0 1-.4-.4V6.4a.4.4 0 0 1 .8 0V8a.4.4 0 0 1-.4.4ZM15.2 8.4a.4.4 0 0 1-.4-.4V6.4a.4.4 0 0 1 .8 0V8a.4.4 0 0 1-.4.4ZM10 6.8h4v.8h-4v-.8ZM6.8 9.2h10.4v.8H6.8v-.8ZM15.6 10.8h.8v.8h-.8v-.8ZM14 10.8h.8v.8H14v-.8ZM12.4 10.8h.8v.8h-.8v-.8ZM10.8 10.8h.8v.8h-.8v-.8ZM9.2 10.8h.8v.8h-.8v-.8ZM15.6 12.4h.8v.8h-.8v-.8ZM14 12.4h.8v.8H14v-.8ZM12.4 12.4h.8v.8h-.8v-.8ZM10.8 12.4h.8v.8h-.8v-.8ZM9.2 12.4h.8v.8h-.8v-.8ZM7.6 12.4h.8v.8h-.8v-.8ZM15.6 14h.8v.8h-.8V14ZM14 14h.8v.8H14V14ZM12.4 14h.8v.8h-.8V14ZM10.8 14h.8v.8h-.8V14ZM9.2 14h.8v.8h-.8V14ZM7.6 14h.8v.8h-.8V14ZM14 15.6h.8v.8H14v-.8ZM12.4 15.6h.8v.8h-.8v-.8ZM10.8 15.6h.8v.8h-.8v-.8ZM9.2 15.6h.8v.8h-.8v-.8ZM7.6 15.6h.8v.8h-.8v-.8Z" clip-rule="evenodd"/>
</svg>
