<svg xmlns="http://www.w3.org/2000/svg" xml:space="preserve" style="enable-background:new 0 0 500 500" viewBox="0 0 500 500" aria-hidden="true" fill="currentColor">
    <style>
        .disaster-risk-reduction_svg__st0{fill:none;stroke:#000;stroke-width:16;stroke-miterlimit:10}
    </style>
    <g id="disaster-risk-reduction_svg__Icons">
        <path d="M388.19 275.38c0-27.19-22.04-49.23-49.23-49.23-19.6 0-36.52 11.46-44.44 28.04-7.92-16.58-24.84-28.04-44.44-28.04s-36.52 11.46-44.44 28.04c-7.92-16.58-24.84-28.04-44.44-28.04-27.19 0-49.23 22.04-49.23 49.23V257c0-76.27 61.83-138.11 138.11-138.11 76.27 0 138.11 61.83 138.11 138.11v18.38z" class="disaster-risk-reduction_svg__st0"/>
        <path d="M205.48 275.38V257c0-76.27 13.93-138.11 44.6-138.11" class="disaster-risk-reduction_svg__st0"/>
        <path d="M293.86 275.38V257c0-76.27-13.93-138.11-44.6-138.11M320.17 378.53c0 19.39-15.72 35.12-35.12 35.12-19.39 0-35.12-15.72-35.12-35.12V224.15M250.08 99.97v18.48" class="disaster-risk-reduction_svg__st0"/>
        <path d="M45.95 42.74h14.19v14.19H45.95zM45.95 71.31h14.19V85.5H45.95zM45.95 99.88h14.19v14.19H45.95zM45.95 128.45h14.19v14.19H45.95zM45.95 157.02h14.19v14.19H45.95zM45.95 185.76h14.19v14.19H45.95zM45.95 214.33h14.19v14.19H45.95zM45.95 242.9h14.19v14.19H45.95zM45.95 271.48h14.19v14.19H45.95zM45.95 300.05h14.19v14.19H45.95zM45.95 328.79h14.19v14.19H45.95zM45.95 357.36h14.19v14.19H45.95zM45.95 385.93h14.19v14.19H45.95zM45.95 414.5h14.19v14.19H45.95zM45.95 443.07h14.19v14.19H45.95zM81.76 42.74h14.19v14.19H81.76zM81.76 71.31h14.19V85.5H81.76zM81.76 99.88h14.19v14.19H81.76zM81.76 128.45h14.19v14.19H81.76zM81.76 157.02h14.19v14.19H81.76zM81.76 185.76h14.19v14.19H81.76zM81.76 214.33h14.19v14.19H81.76zM81.76 242.9h14.19v14.19H81.76zM81.76 271.48h14.19v14.19H81.76zM81.76 300.05h14.19v14.19H81.76zM81.76 328.79h14.19v14.19H81.76zM81.76 357.36h14.19v14.19H81.76zM81.76 385.93h14.19v14.19H81.76zM81.76 414.5h14.19v14.19H81.76zM81.76 443.07h14.19v14.19H81.76zM117.57 42.74h14.19v14.19h-14.19zM117.57 71.31h14.19V85.5h-14.19zM117.57 99.88h14.19v14.19h-14.19zM117.57 128.45h14.19v14.19h-14.19zM153.38 42.74h14.19v14.19h-14.19zM153.38 71.31h14.19V85.5h-14.19zM153.38 99.88h14.19v14.19h-14.19zM189.19 42.74h14.19v14.19h-14.19zM189.19 71.31h14.19V85.5h-14.19zM189.19 99.88h14.19v14.19h-14.19zM225 42.74h14.19v14.19H225zM225 71.31h14.19V85.5H225zM260.81 42.74H275v14.19h-14.19zM260.81 71.31H275V85.5h-14.19zM296.62 42.74h14.19v14.19h-14.19zM296.62 71.31h14.19V85.5h-14.19zM296.62 99.88h14.19v14.19h-14.19zM332.43 42.74h14.19v14.19h-14.19zM332.43 71.31h14.19V85.5h-14.19zM332.43 99.88h14.19v14.19h-14.19zM368.24 42.74h14.19v14.19h-14.19zM368.24 71.31h14.19V85.5h-14.19zM368.24 99.88h14.19v14.19h-14.19zM368.24 128.45h14.19v14.19h-14.19zM404.05 42.74h14.19v14.19h-14.19zM404.05 71.31h14.19V85.5h-14.19zM404.05 99.88h14.19v14.19h-14.19zM404.05 128.45h14.19v14.19h-14.19zM404.05 157.02h14.19v14.19h-14.19zM404.05 185.76h14.19v14.19h-14.19zM404.05 214.33h14.19v14.19h-14.19zM404.05 242.9h14.19v14.19h-14.19zM404.05 271.48h14.19v14.19h-14.19zM404.05 300.05h14.19v14.19h-14.19zM404.05 328.79h14.19v14.19h-14.19zM404.05 357.36h14.19v14.19h-14.19zM404.05 385.93h14.19v14.19h-14.19zM404.05 414.5h14.19v14.19h-14.19zM404.05 443.07h14.19v14.19h-14.19zM439.86 42.74h14.19v14.19h-14.19zM439.86 71.31h14.19V85.5h-14.19zM439.86 99.88h14.19v14.19h-14.19zM439.86 128.45h14.19v14.19h-14.19zM439.86 157.02h14.19v14.19h-14.19zM439.86 185.76h14.19v14.19h-14.19zM439.86 214.33h14.19v14.19h-14.19zM439.86 242.9h14.19v14.19h-14.19zM439.86 271.48h14.19v14.19h-14.19zM439.86 300.05h14.19v14.19h-14.19zM439.86 328.79h14.19v14.19h-14.19zM439.86 357.36h14.19v14.19h-14.19zM439.86 385.93h14.19v14.19h-14.19zM439.86 414.5h14.19v14.19h-14.19zM439.86 443.07h14.19v14.19h-14.19z"/>
    </g>
</svg>
