<svg xmlns="http://www.w3.org/2000/svg" viewBox="0 0 24 24" aria-hidden="true" fill="currentColor">
    <path d="M18.143 17.428h-3v-6.584a1.154 1.154 0 0 1 1.156-1.13 1.131 1.131 0 0 1 1.13 1.13l.001.013h-.002v.196a.997.997 0 0 0-.57.9c0 .5.818 1.553.974 1.749a.03.03 0 0 0 .011.009.031.031 0 0 0 .028 0 .03.03 0 0 0 .012-.01c.155-.195.974-1.248.974-1.747a.996.996 0 0 0-.571-.9v-.197h-.002l.002-.013a1.99 1.99 0 0 0-1.987-1.987 2.012 2.012 0 0 0-2.013 1.987v1.441h-.715A1.58 1.58 0 0 0 12 13.857v.34a.997.997 0 0 0-.572.9c0 .5.82 1.552.975 1.748a.032.032 0 0 0 .051 0c.155-.196.974-1.249.974-1.748a.997.997 0 0 0-.57-.9v-.34a.714.714 0 0 1 .713-.714h.715v4.285H5.857a.714.714 0 1 0 0 1.429h12.286a.715.715 0 0 0 0-1.429ZM8.714 6.857a.429.429 0 0 0 .429-.429v-.857a.429.429 0 0 0-.857 0v.857a.429.429 0 0 0 .428.429ZM8.286 11v.857a.429.429 0 0 0 .857 0V11a.428.428 0 1 0-.857 0Zm2.348-3.6.605-.605a.428.428 0 1 0-.605-.606l-.607.606a.429.429 0 1 0 .607.606Zm-3.84 2.627-.605.606a.429.429 0 0 0 .606.606l.606-.606a.429.429 0 1 0-.606-.606Zm3.777-1.313a.428.428 0 0 0 .429.429h.857a.429.429 0 0 0 0-.858H11a.429.429 0 0 0-.429.429Zm-5 .429h.858a.429.429 0 0 0 0-.858H5.57a.429.429 0 1 0 0 .858Zm4.456.884a.429.429 0 0 0 0 .606l.607.606a.428.428 0 0 0 .605-.606l-.605-.606a.43.43 0 0 0-.607 0ZM6.795 7.401a.429.429 0 1 0 .606-.606l-.606-.606a.429.429 0 0 0-.606.606l.606.606ZM8.714 10a1.286 1.286 0 1 0 0-2.572 1.286 1.286 0 0 0 0 2.572Z"/>
</svg>
