<svg xmlns="http://www.w3.org/2000/svg" xml:space="preserve" style="enable-background:new 0 0 500 500" viewBox="0 0 500 500" aria-hidden="true" fill="currentColor">
    <style>
        .early-recovery_svg__st0{fill:none;stroke:#000;stroke-width:16;stroke-miterlimit:10}
    </style>
    <g id="early-recovery_svg__Icons">
        <path d="M74.16 211.57V63.72h363.68v147.85" class="early-recovery_svg__st0"/>
        <path d="M108.79 211.55V92.16h294.42v119.39M74.16 211.57h363.68v204.71H74.16z" class="early-recovery_svg__st0"/>
        <path d="m180.93 182.59 11.74-20.05-5.73-48.69h-18.57l-5.74 48.69 11.74 20.05zM177.65 190.47v21.1M325.37 176.84h24V119.6h-24M318.04 140.05V119.6h-41.4c-28.17 0-51.01 22.84-51.01 51.01a49.652 49.652 0 0 1 35.13-15.02l1.38-.01v21.26h55.9v-19.67M279.7 211.57v-34.73M305.42 176.84v34.73M74.16 279.89h363.68M74.16 348.08h363.68" class="early-recovery_svg__st0"/>
        <path d="M91.45 228.9h11.2v11.2h-11.2zM91.45 254.19h11.2v11.2h-11.2zM409.35 228.9h11.2v11.2h-11.2zM409.35 254.19h11.2v11.2h-11.2zM91.45 295.74h11.2v11.2h-11.2zM91.45 321.03h11.2v11.2h-11.2zM409.35 295.74h11.2v11.2h-11.2zM409.35 321.03h11.2v11.2h-11.2zM91.45 363.93h11.2v11.2h-11.2zM91.45 389.22h11.2v11.2h-11.2zM409.35 363.93h11.2v11.2h-11.2zM409.35 389.22h11.2v11.2h-11.2z"/>
    </g>
</svg>
