<svg xmlns="http://www.w3.org/2000/svg" aria-hidden="true" viewBox="0 0 24 24" fill="currentColor">
    <path d="M18.806 8.571 14.617 5.16a.07.07 0 0 0-.091 0l-4.189 3.41a.152.152 0 0 0-.051.109v5.06a2.5 2.5 0 0 1 .94.328c.229.151.5.227.774.218.273.009.543-.067.771-.218a2.47 2.47 0 0 1 1.323-.354 2.46 2.46 0 0 1 1.32.354 1.494 1.494 0 0 0 1.552 0 2.46 2.46 0 0 1 1.32-.354c.192-.001.383.018.571.057V8.68a.152.152 0 0 0-.051-.109Zm-.52 8.572a2.457 2.457 0 0 0-1.32.354 1.495 1.495 0 0 1-1.552 0 2.458 2.458 0 0 0-1.32-.354 2.47 2.47 0 0 0-1.323.354c-.228.15-.498.226-.771.217a1.325 1.325 0 0 1-.774-.217 2.478 2.478 0 0 0-1.323-.354 2.458 2.458 0 0 0-1.32.354c-.23.15-.5.226-.774.217a1.339 1.339 0 0 1-.775-.217 2.458 2.458 0 0 0-1.32-.354.571.571 0 1 0 0 1.142c.275-.008.545.067.775.218.397.24.855.363 1.32.354.464.009.922-.114 1.32-.354.23-.15.5-.226.774-.218.274-.009.545.067.774.218.399.24.857.363 1.323.354.465.009.922-.114 1.32-.354a1.49 1.49 0 0 1 1.548 0 2.642 2.642 0 0 0 2.643 0c.23-.15.5-.227.775-.218a.571.571 0 1 0 0-1.142Zm0-2.286a2.454 2.454 0 0 0-1.322.355 1.498 1.498 0 0 1-1.55 0 2.454 2.454 0 0 0-1.32-.355 2.451 2.451 0 0 0-1.322.355c-.23.15-.5.225-.774.216a1.341 1.341 0 0 1-.773-.216 2.454 2.454 0 0 0-1.322-.355 2.454 2.454 0 0 0-1.321.355c-.23.15-.5.225-.773.216a1.34 1.34 0 0 1-.774-.215 2.45 2.45 0 0 0-1.32-.356.571.571 0 1 0 0 1.143 1.34 1.34 0 0 1 .773.216c.397.241.855.364 1.32.355.465.01.924-.114 1.321-.355.23-.15.5-.225.774-.216a1.34 1.34 0 0 1 .774.216c.398.241.856.364 1.321.355.466.01.924-.114 1.321-.356a1.496 1.496 0 0 1 1.549 0 2.634 2.634 0 0 0 2.643 0c.23-.149.5-.224.775-.215a.572.572 0 0 0 0-1.143Z"/>
</svg>
