<svg xmlns="http://www.w3.org/2000/svg" viewBox="0 0 24 24" aria-hidden="true" fill="currentColor">
    <path d="M18.571 13.387H5.43a.286.286 0 0 0-.286.286 3.715 3.715 0 0 0 3.714 3.714h6.286a3.714 3.714 0 0 0 3.714-3.714.286.286 0 0 0-.286-.286Zm-7.46-3.079-.71-.19a1.429 1.429 0 0 0-1.75 1.01l-.05.188.71.19a1.43 1.43 0 0 0 1.75-1.01l.05-.188Zm-.159 1.638.71.19a1.429 1.429 0 0 0 1.75-1.01l.05-.188-.71-.19a1.43 1.43 0 0 0-1.75 1.01l-.05.188Zm2.352.63.71.19a1.428 1.428 0 0 0 1.75-1.01l.05-.188-.71-.19a1.429 1.429 0 0 0-1.75 1.01l-.05.188ZM10.61 9.334l.711.19.05-.188a1.429 1.429 0 0 0-1.01-1.75l-.71-.19-.05.188a1.429 1.429 0 0 0 1.01 1.75Zm2.352.63.71.19.051-.188a1.43 1.43 0 0 0-1.01-1.75l-.71-.19-.051.188a1.429 1.429 0 0 0 1.01 1.75Zm2.352.63.71.19.051-.188a1.429 1.429 0 0 0-1.01-1.749l-.71-.19-.051.187a1.428 1.428 0 0 0 1.01 1.75Zm2.958 1.213a.405.405 0 0 0-.287-.498l-1.437-.384-.21.784 1.436.385a.405.405 0 0 0 .498-.287Zm-11.422-1.8a.406.406 0 1 0-.21.784l1.046.28a.407.407 0 0 0 .46-.596.406.406 0 0 0-.25-.188l-1.046-.28Zm.63-2.352 1.046.28a.406.406 0 0 0 .21-.784l-1.045-.28a.406.406 0 0 0-.21.784ZM6.016 8.943l2.875.77a.406.406 0 0 0 .21-.784l-2.874-.77a.406.406 0 1 0-.211.784Z"/>
</svg>
