<svg xmlns="http://www.w3.org/2000/svg" aria-hidden="true" viewBox="0 0 24 24" fill="currentColor">
    <g clip-path="url(#forbid-two-line_svg__a)">
        <path d="M12 22C6.477 22 2 17.523 2 12S6.477 2 12 2s10 4.477 10 10-4.477 10-10 10Zm0-2a8 8 0 1 0 0-16.001A8 8 0 0 0 12 20Zm4.891-11.477-8.368 8.368a6.04 6.04 0 0 1-1.414-1.414l8.368-8.368a6.04 6.04 0 0 1 1.414 1.414Z"/>
    </g>
    <defs>
        <clipPath id="forbid-two-line_svg__a">
            <path d="M0 0h24v24H0z"/>
        </clipPath>
    </defs>
</svg>
