<svg xmlns="http://www.w3.org/2000/svg" viewBox="0 0 24 24" aria-hidden="true" fill="currentColor">
    <g clip-path="url(#a)">
        <g clip-path="url(#b)">
            <path d="M13.838 19.365c.312.295.683.502 1.08.605.038.014.064-.042.038-.07-.851-.914-.383-1.904-.038-2.35.247-.318.598-.842.572-1.546 0-.07.064-.126.115-.084.483.281.813.9.902 1.406.14-.154.19-.394.19-.604 0-.07.077-.127.14-.07.458.463 1.246 2.038-.025 3.275-.025.029 0 .085.026.071.385-.114.748-.31 1.067-.577 2.072-1.8.725-4.992-.152-6.046-.115-.127-.318-.043-.318.14-.013.38-.114.802-.381 1.083-.203-.956-1.802-2.562-2.768-3.096-.127-.07-.28.042-.267.197.025 1.308.188 2.66-.473 3.743-.585.97-.967 2.756.292 3.923Z"/>
            <path fill-rule="evenodd" d="M4.88 9.17a3.1 3.1 0 0 0 1.125 5.06 2.537 2.537 0 0 0 2.148 1.531l.945 1.614V20h2.423v-3.998c.171.083.355.144.548.18.105-.583.32-1.12.567-1.532.586-.964.509-1.97.425-3.068a18.71 18.71 0 0 1-.06-1.08c-.009-.43.5-.78 1-.501.915.51 2.366 1.768 2.843 2.817a3.521 3.521 0 0 0-1.286-4.268l.001-.02.001-.019A4.51 4.51 0 0 0 11.05 4a4.494 4.494 0 0 0-3.296 1.437 3.312 3.312 0 0 0-2.908 3.285c0 .152.014.3.034.447Zm5.468 5.61c.021-.028.043-.056.063-.085.013.043.028.086.044.128l-.107-.043Zm-.695.62v1.269L8.92 15.7c.263-.062.51-.164.734-.3Z" clip-rule="evenodd"/>
        </g>
    </g>
    <defs>
        <clipPath id="a">
            <path d="M4 4h16v16H4z"/>
        </clipPath>
        <clipPath id="b">
            <path d="M4 4h16v16H4z"/>
        </clipPath>
    </defs>
</svg>
