<svg xmlns="http://www.w3.org/2000/svg" viewBox="0 0 24 24" aria-hidden="true" fill="currentColor">
    <path d="M8.668 6.364A2.62 2.62 0 0 0 6.412 8.06c-.176.486-.206.996-.1 1.63.132.792.526 1.648.976 2.124l.08.086H7.12a2.36 2.36 0 0 0-2.282 1.626c-.112.332-.118.412-.118 1.68 0 1.096.002 1.16.038 1.23.02.04.068.096.106.124l.066.05 1.446.006 1.444.006v.406c0 .388.002.41.046.472a.39.39 0 0 0 .114.108c.07.042.072.042 4.02.042 3.914 0 3.95 0 4.018-.04.146-.086.152-.104.158-.572l.006-.418h2.832l.088-.046a.348.348 0 0 0 .132-.126l.046-.078v-1.16c0-1.272-.006-1.352-.118-1.684a2.355 2.355 0 0 0-2.276-1.626h-.246l.156-.186c.198-.236.342-.462.486-.764.41-.858.568-1.842.406-2.55a2.667 2.667 0 0 0-.884-1.442 2.621 2.621 0 0 0-1.67-.6c-.488 0-.904.112-1.34.362a3.217 3.217 0 0 0-.618.506l-.074.088-.23-.078A2.376 2.376 0 0 0 12 7.094c-.346 0-.554.034-.872.144l-.226.078-.092-.108a3.33 3.33 0 0 0-.626-.502 2.659 2.659 0 0 0-1.516-.342Zm3.814 1.434c.58.15 1.06.528 1.332 1.052.234.454.28.962.144 1.636-.208 1.046-.712 1.866-1.33 2.166-.244.12-.418.154-.698.142-.566-.026-.994-.326-1.396-.974-.316-.512-.53-1.228-.564-1.892-.02-.392.048-.744.204-1.058a2.072 2.072 0 0 1 1.586-1.118c.154-.02.572.008.722.046Zm-2.052 5.796c.148.372.45.696.828.884.258.13.422.168.742.168.21 0 .304-.01.422-.042.178-.048.44-.176.586-.284.23-.17.458-.464.562-.726l.054-.134h.156c.428 0 .822.152 1.154.444.338.294.536.676.586 1.126.01.098.02.582.02 1.074V17h-.8v-1.694l-.046-.088a.313.313 0 0 0-.45-.126c-.164.096-.164.092-.164 1.062V17H9.92v-1.694l-.046-.088a.318.318 0 0 0-.572.008c-.04.084-.042.114-.042.93V17h-.8v-.896c0-.938.014-1.164.082-1.394.146-.492.56-.942 1.038-1.13.17-.068.432-.116.622-.118l.174-.002.054.134Zm2.47-.116c0 .036-.162.222-.26.3a1.034 1.034 0 0 1-1.28 0c-.098-.078-.26-.264-.26-.3 0-.01.372-.018.9-.018s.9.008.9.018Z"/>
</svg>
