<svg xmlns="http://www.w3.org/2000/svg" aria-hidden="true" viewBox="0 0 24 24" fill="currentColor">
    <circle cx="12" cy="12" r="12" opacity=".1"/>
    <path d="m18.75 12.079-.01-.02a.849.849 0 0 0-1.155-.312l-1.326.766a4.235 4.235 0 0 0-.508-2.594.43.43 0 0 0-.026-.052l-.009-.011-2.477-4.291a.844.844 0 0 0-1.154-.309l-.023.011a.85.85 0 0 0-.309 1.155l.763 1.323a4.254 4.254 0 0 0-2.643.537l-.031.017-4.277 2.471a.844.844 0 0 0-.309 1.155l.012.02a.845.845 0 0 0 1.154.308l1.329-.766c-.111.91.074 1.83.528 2.626a.06.06 0 0 0 .009.02l.005.009 2.478 4.291a.846.846 0 0 0 1.154.309l.023-.012a.847.847 0 0 0 .308-1.154l-.763-1.323c.879.11 1.77-.06 2.546-.486a.813.813 0 0 0 .1-.051l.009-.006 4.294-2.477a.85.85 0 0 0 .308-1.154Zm-8.97 1.206c-.004-.003-.004-.006-.007-.009a2.57 2.57 0 0 1 .926-3.491l.02-.012.014-.008a2.572 2.572 0 0 1 3.489.928l.011.02.009.014a2.575 2.575 0 0 1-.952 3.5c-.002.003-.005.003-.008.006a2.572 2.572 0 0 1-3.503-.948Z"/>
</svg>
