<svg xmlns="http://www.w3.org/2000/svg" aria-hidden="true" viewBox="0 0 24 24" fill="currentColor">
    <g clip-path="url(#a)">
        <path d="m21.179 12.794.013.014L12 22l-9.192-9.192.013-.014A6.5 6.5 0 0 1 12 3.64a6.5 6.5 0 0 1 9.179 9.154ZM4.575 5.384a4.5 4.5 0 0 0 0 6.363L12 19.172l7.425-7.425a4.5 4.5 0 0 0-6.364-6.364L8.818 9.626 7.404 8.21l3.162-3.162a4.5 4.5 0 0 0-5.99.334l-.001.001Z"/>
    </g>
    <defs>
        <clipPath id="a">
            <path d="M0 0h24v24H0z"/>
        </clipPath>
    </defs>
</svg>
