<svg xmlns="http://www.w3.org/2000/svg" viewBox="0 0 25 24" aria-hidden="true" fill="currentColor">
    <path d="M5.217 5.745a1.06 1.06 0 0 0-.545.553l-.064.169v9.996l.064.168c.084.23.324.47.553.554l.169.064H18.29l.168-.064c.229-.084.47-.325.554-.553l.063-.169V6.467l-.063-.169a1.035 1.035 0 0 0-.554-.553l-.168-.064-6.457.003H5.376l-.16.06Zm13.099.385c.142.061.235.151.298.29.053.11.055.299.055 4.47v4.358H5.014V10.9c0-3.862.006-4.364.043-4.46a.542.542 0 0 1 .29-.298c.11-.052.354-.055 6.489-.055 5.685 0 6.384.006 6.48.043Z"/>
    <path d="M8.528 6.919a.334.334 0 0 0-.078.156c-.01.053-.015.525-.01 1.047l.01.954.08.07.082.069H9.62c.994 0 1.011 0 1.09-.064.08-.06.08-.064.063-.328-.06-1.023-.892-1.858-1.942-1.945-.223-.017-.25-.014-.304.04ZM16.968 7.713a.76.76 0 0 0-.334 1.018l.082.162-.708 1.038-.704 1.04h-.226c-.189.004-.253.015-.377.079l-.148.078-.508-.35-.507-.351.017-.151a.781.781 0 0 0-.458-.797c-.124-.053-.188-.064-.356-.053-.226.015-.33.058-.473.2a.713.713 0 0 0-.226.534l-.009.203-.481.281-.481.281-.125-.09c-.104-.072-.165-.09-.33-.104a.6.6 0 0 0-.392.075c-.287.134-.426.354-.426.679 0 .435.316.757.745.754.447-.003.76-.316.763-.76v-.188l.484-.279.481-.28.113.08a.789.789 0 0 0 .513.128c.058-.012.168-.05.244-.087l.142-.07.504.351c.279.191.499.362.49.377a.772.772 0 0 0-.017.217c0 .238.075.41.246.548a.72.72 0 0 0 .502.189c.591-.003.971-.693.64-1.166l-.054-.078.733-1.04.73-1.039.236.003c.19 0 .258-.011.374-.072.327-.168.475-.563.348-.934a.806.806 0 0 0-.438-.44c-.195-.067-.458-.061-.61.014Z"/>
    <path d="M7.318 7.81a2.025 2.025 0 0 0-1.043.58 2.116 2.116 0 0 0-.177 2.783c.264.348.707.643 1.148.76.258.069.815.069 1.073 0 .318-.085.658-.273.895-.5.424-.402.635-.829.687-1.397.018-.197.015-.211-.055-.28l-.075-.076H8V8.78c0-1.064.014-1.017-.31-1.012-.11 0-.276.02-.372.04ZM16.617 10.36l-.063.066v4.298l.075.059c.073.058.116.06.62.06.505 0 .548-.002.62-.06l.076-.058V10.41l-.075-.058c-.073-.058-.116-.06-.635-.06-.542 0-.557.002-.617.066ZM12.138 11.446c-.043.05-.05.206-.05 1.667v1.612l.076.058c.073.058.116.06.609.06.519 0 .53-.002.612-.069l.08-.07V13.11c0-1.527-.002-1.597-.054-1.655-.052-.058-.081-.061-.64-.061-.531 0-.59.006-.633.052ZM9.885 12.757a.316.316 0 0 0-.072.122 14.34 14.34 0 0 0-.009.956c.012 1.122-.05 1.02.62 1.032.54.012.656 0 .74-.084.052-.052.055-.101.055-1.011 0-.92-.003-.96-.058-1.015-.055-.055-.096-.058-.638-.058-.54 0-.583.003-.638.058ZM14.352 13.008c-.058.075-.061.113-.061.884 0 .765.003.811.058.867.084.083.145.092.722.08.516-.008.53-.011.585-.078.053-.063.055-.124.055-.872 0-.768-.002-.806-.06-.881l-.058-.076H14.41l-.058.075ZM9.376 18.182c-.313.458-.322.467-.475.525a.878.878 0 0 0-.293.191c-.183.183-.232.35-.232.771 0 .284.009.336.06.403l.059.076h3.116c3.076 0 3.114 0 3.172-.058.052-.053.058-.096.058-.42 0-.268-.012-.395-.05-.485a.834.834 0 0 0-.426-.458c-.18-.09-.194-.104-.501-.55l-.313-.462H9.695l-.319.467Z"/>
</svg>
