<svg xmlns="http://www.w3.org/2000/svg" viewBox="0 0 24 24" aria-hidden="true" fill="currentColor">
  <g clip-path="url(#a)">
    <path d="M12 2a1 1 0 0 1 1 1v3a1 1 0 1 1-2 0V3a1 1 0 0 1 1-1Zm0 15a1 1 0 0 1 1 1v3a1 1 0 1 1-2 0v-3a1 1 0 0 1 1-1Zm8.66-10a1 1 0 0 1-.366 1.366l-2.598 1.5a1 1 0 1 1-1-1.732l2.598-1.5A1 1 0 0 1 20.66 7ZM7.67 14.5a1 1 0 0 1-.366 1.366l-2.598 1.5a1 1 0 1 1-1-1.732l2.598-1.5a1 1 0 0 1 1.366.366ZM20.66 17a1 1 0 0 1-1.366.366l-2.598-1.5a1 1 0 0 1 1-1.732l2.598 1.5A1 1 0 0 1 20.66 17ZM7.67 9.5a1 1 0 0 1-1.366.366l-2.598-1.5a1 1 0 1 1 1-1.732l2.598 1.5A1 1 0 0 1 7.67 9.5Z"/>
  </g>
  <defs>
    <clipPath id="a">
      <path d="M0 0h24v24H0z"/>
    </clipPath>
  </defs>
</svg>
