<svg xmlns="http://www.w3.org/2000/svg" aria-hidden="true" viewBox="0 0 24 24" fill="currentColor">
    <g clip-path="url(#paint-brush-line_svg__a)">
        <path d="M5 5v3h14V5H5ZM4 3h16a1 1 0 0 1 1 1v5a1 1 0 0 1-1 1H4a1 1 0 0 1-1-1V4a1 1 0 0 1 1-1Zm2 9h6a1 1 0 0 1 1 1v3h1v6h-4v-6h1v-2H5a1 1 0 0 1-1-1v-2h2v1Zm11.732 1.732 1.768-1.768 1.768 1.768a2.5 2.5 0 1 1-3.536 0Z"/>
    </g>
    <defs>
        <clipPath id="paint-brush-line_svg__a">
            <path d="M0 0h24v24H0z"/>
        </clipPath>
    </defs>
</svg>
