<svg xmlns="http://www.w3.org/2000/svg" viewBox="0 0 56 56" aria-hidden="true" fill="currentColor">
    <g clip-path="url(#partnership_svg__a)">
        <path d="m15.21 32.09 1.73-1.73c.271-.276.448-.631.506-1.014a1.99 1.99 0 0 0-.564-1.712 2.044 2.044 0 0 0-.956-.535 1.87 1.87 0 0 0-1.77.478l-2.639 2.64-2.113 2.113a1.932 1.932 0 0 0 .057 2.725c.375.377.884.59 1.416.593.49 0 .96-.192 1.31-.535l3.022-3.022v-.001Z"/>
        <path d="m28.54 16.646-.268.268-3.653 3.653-.134.134-1.425 1.415a3.804 3.804 0 0 1-3.05 1.09c-.039 0-.087-.01-.125-.01a3.814 3.814 0 0 1-2.238-6.492l8.138-8.13c.201-.2.412-.401.622-.582A13.388 13.388 0 0 0 9.92 28.858l.115.115 2.764-2.764a3.736 3.736 0 0 1 2.668-1.09 3.858 3.858 0 0 1 1.932.507c.311.173.597.389.85.64a3.968 3.968 0 0 1 1.024 1.79c.075.297.116.601.124.908.014.361-.031.723-.134 1.07.32-.092.652-.137.985-.133a3.92 3.92 0 0 1 3.93 3.844c.014.362-.03.724-.133 1.07.32-.092.652-.137.985-.133a3.92 3.92 0 0 1 3.93 3.845c.014.361-.031.723-.134 1.07.32-.093.652-.137.985-.133a3.92 3.92 0 0 1 3.93 3.844 3.717 3.717 0 0 1-.343 1.683c.35.143.723.218 1.1.22a2.87 2.87 0 0 0 2.505-4.265 2.862 2.862 0 0 0 3.94-3.95c.425.244.906.373 1.396.374a2.87 2.87 0 0 0 2.028-4.897L28.54 16.646Z"/>
        <path d="M29.812 41.386c-.1 0-.2.01-.297.029-.382.06-.737.237-1.014.507l-4.752 4.752a1.932 1.932 0 0 0 .057 2.726c.375.377.883.59 1.415.593.49 0 .96-.193 1.31-.536l4.753-4.753c.272-.276.45-.63.507-1.013a2.013 2.013 0 0 0-1.98-2.305h.001Zm-7.585-7.258a2.013 2.013 0 0 0-1.979-2.305c-.1 0-.198.01-.296.029-.382.06-.737.237-1.014.507l-4.753 4.75a1.933 1.933 0 0 0 .058 2.727c.375.377.883.59 1.415.593.49 0 .96-.193 1.31-.536l4.753-4.753c.272-.276.45-.63.507-1.013Zm4.782 4.782a2.012 2.012 0 0 0-1.979-2.306c-.1 0-.198.01-.296.03-.382.06-.737.236-1.014.506l-4.753 4.753a1.932 1.932 0 0 0 .057 2.725c.375.377.884.59 1.416.593.49 0 .96-.192 1.31-.535l4.753-4.753c.272-.276.449-.631.506-1.014ZM46.07 9.923a13.38 13.38 0 0 0-18.075-.784c-.296.249-.583.507-.86.784l-8.129 8.13a1.916 1.916 0 0 0 0 2.705 1.928 1.928 0 0 0 2.706 0l7.05-7.048 2.428 2.43 13.732 13.732c.403-.315.786-.653 1.148-1.014a13.386 13.386 0 0 0 0-18.935Z"/>
    </g>
    <defs>
        <clipPath id="partnership_svg__a">
            <path d="M0 0h56v56H0z"/>
        </clipPath>
    </defs>
</svg>
