<svg xmlns="http://www.w3.org/2000/svg" aria-hidden="true" viewBox="0 0 24 24" fill="currentColor">
    <g clip-path="url(#refresh-fill_svg__a)">
        <path d="M12 22C6.477 22 2 17.523 2 12S6.477 2 12 2s10 4.477 10 10-4.477 10-10 10Zm4.82-4.924A7 7 0 0 0 9.032 5.658l.975 1.755A5 5 0 0 1 17 12h-3l2.82 5.076Zm-1.852 1.266-.975-1.755A5 5 0 0 1 7 12h3L7.18 6.924a7 7 0 0 0 7.788 11.418Z"/>
    </g>
    <defs>
        <clipPath id="refresh-fill_svg__a">
            <path d="M0 0h24v24H0z"/>
        </clipPath>
    </defs>
</svg>
