<svg xmlns="http://www.w3.org/2000/svg" aria-hidden="true" viewBox="0 0 24 24" fill="currentColor">
    <g clip-path="url(#scissors-two-line_svg__a)">
        <path d="m12 13.414-2.554 2.554a4 4 0 1 1-1.414-1.414L10.586 12 4.565 5.98a2 2 0 0 1 0-2.83L12 10.587l7.435-7.435a2 2 0 0 1 0 2.828L13.415 12l2.553 2.554a4 4 0 1 1-1.414 1.414L12 13.414ZM6 20a2 2 0 1 0 0-4 2 2 0 0 0 0 4Zm12 0a2 2 0 1 0 0-4 2 2 0 0 0 0 4Z"/>
    </g>
    <defs>
        <clipPath id="scissors-two-line_svg__a">
            <path d="M0 0h24v24H0z"/>
        </clipPath>
    </defs>
</svg>
