<svg xmlns="http://www.w3.org/2000/svg" viewBox="0 0 24 24" aria-hidden="true" fill="currentColor">
    <g clip-path="url(#a)">
        <path d="m12 14.12-2.317 2.318a4 4 0 1 1-2.12-2.121L9.88 12 4.21 6.333a2 2 0 0 1 0-2.83l.708-.706L12 9.88l7.081-7.082.708.707a1.999 1.999 0 0 1 0 2.829L14.12 12l2.317 2.317a4 4 0 1 1-2.12 2.12L12 14.12ZM6 20a2 2 0 1 0 0-4 2 2 0 0 0 0 4Zm12 0a2 2 0 1 0 0-4 2 2 0 0 0 0 4Z"/>
    </g>
    <defs>
        <clipPath id="a">
            <path d="M0 0h24v24H0z"/>
        </clipPath>
    </defs>
</svg>
