<svg xmlns="http://www.w3.org/2000/svg" viewBox="0 0 24 24" aria-hidden="true" fill="currentColor">
  <g clip-path="url(#a)">
    <path d="m12.895 16.018-3.359-1.832a3.2 3.2 0 1 1 0-4.371l3.36-1.832a3.2 3.2 0 1 1 .767 1.404l-3.36 1.832c.13.513.13 1.05 0 1.563l3.359 1.831a3.2 3.2 0 1 1-.767 1.404ZM7.2 13.6a1.6 1.6 0 1 0 0-3.2 1.6 1.6 0 0 0 0 3.2Zm8.798-4.8a1.6 1.6 0 1 0 0-3.199 1.6 1.6 0 0 0 0 3.2Zm0 9.599a1.6 1.6 0 1 0 0-3.2 1.6 1.6 0 0 0 0 3.2Z"/>
  </g>
  <defs>
    <clipPath id="a">
      <path d="M0 0h24v24H0z"/>
    </clipPath>
  </defs>
</svg>
