<svg xmlns="http://www.w3.org/2000/svg" viewBox="0 0 40 40" aria-hidden="true" fill="currentColor">
    <g clip-path="url(#a)">
        <path fill-rule="evenodd" d="M14.775 10.284c0 1.245-.948 2.253-2.43 2.253-1.426 0-2.374-1.008-2.344-2.253C9.97 8.978 10.919 8 12.373 8c1.454 0 2.373.978 2.402 2.284ZM10.12 28.819V14.316h4.507v14.502H10.12v.001ZM18.24 18.944c0-1.809-.06-3.351-.12-4.626h3.916l.208 1.987h.089c.593-.92 2.075-2.313 4.478-2.313 2.965 0 5.189 1.958 5.189 6.227v8.601h-4.507v-8.037c0-1.87-.652-3.144-2.283-3.144-1.246 0-1.987.86-2.283 1.69-.12.297-.178.712-.178 1.128v8.363h-4.507v-9.876h-.002Z" clip-rule="evenodd"/>
    </g>
    <defs>
        <clipPath id="a">
            <path d="M0 0h40v40H0z"/>
        </clipPath>
    </defs>
</svg>
