<svg xmlns="http://www.w3.org/2000/svg" aria-hidden="true" viewBox="0 0 40 40" fill="currentColor">
    <g clip-path="url(#social-youtube-two_svg__a)">
        <path fill-rule="evenodd" d="M31.3 12.378c.4.4.687.896.835 1.44.849 3.418.652 8.814.016 12.363a3.23 3.23 0 0 1-2.275 2.275C27.882 29 19.854 29 19.854 29s-8.027 0-10.022-.544a3.23 3.23 0 0 1-2.274-2.275c-.854-3.402-.62-8.802-.017-12.346a3.23 3.23 0 0 1 2.275-2.275c1.994-.543 10.022-.56 10.022-.56s8.027 0 10.022.544a3.23 3.23 0 0 1 1.44.834ZM23.942 20l-6.659 3.857v-7.714L23.943 20Z" clip-rule="evenodd"/>
    </g>
    <defs>
        <clipPath id="social-youtube-two_svg__a">
            <path d="M0 0h40v40H0z"/>
        </clipPath>
    </defs>
</svg>
