<svg xmlns="http://www.w3.org/2000/svg" viewBox="0 0 24 24" aria-hidden="true" fill="currentColor">
    <g clip-path="url(#a)">
        <path d="M16.28 7.717a2.495 2.495 0 0 0-.903.166h-.003a3.283 3.283 0 0 0-6.52.503 1.708 1.708 0 0 0-2.26 1.911H6.59a1.286 1.286 0 1 0-.169 2.56h9.858a2.572 2.572 0 0 0 1.818-4.389 2.57 2.57 0 0 0-1.818-.751Zm-3 7.997h-1.798l1.019-1.63a.427.427 0 0 0-.293-.65.428.428 0 0 0-.434.196l-1.429 2.285a.429.429 0 0 0 .364.656h1.798l-1.019 1.63a.427.427 0 0 0 .293.65.428.428 0 0 0 .434-.196l1.428-2.285a.429.429 0 0 0-.363-.656Z"/>
    </g>
    <defs>
        <clipPath id="a">
            <path d="M4 4h16v16H4z"/>
        </clipPath>
    </defs>
</svg>
