<svg xmlns="http://www.w3.org/2000/svg" xml:space="preserve" style="enable-background:new 0 0 500 500" viewBox="0 0 500 500" aria-hidden="true" fill="currentColor">
    <style>
        .strategic-priorities-resource-mobilization_svg__st0{fill:none;stroke:#000;stroke-width:16;stroke-miterlimit:10}
    </style>
    <g id="strategic-priorities-resource-mobilization_svg__Icons">
        <path d="M232.5 429.93c-7.3 7.04-18.92 6.83-25.96-.47-7.04-7.3-6.83-18.92.47-25.96l53.73-54.2c7.3-7.04 18.92-6.83 25.96.47 7.04 7.3 6.83 18.92-.47 25.96l-53.73 54.2z" class="strategic-priorities-resource-mobilization_svg__st0"/>
        <path d="m311.76 313.86.33 76.31c-.18 10.14-8.55 18.21-18.69 18.02s-18.21-8.55-18.02-18.69M348.81 295.86l.33 76.31c-.18 10.14-8.55 18.21-18.69 18.02s-18.21-8.55-18.02-18.69M199.47 411.04c-7.3 7.04-18.92 6.83-25.96-.47s-6.83-18.92.47-25.96l86.49-86.96c7.3-7.04 18.92-6.83 25.96.47 7.04 7.3 6.83 18.92-.47 25.96l-86.49 86.96z" class="strategic-priorities-resource-mobilization_svg__st0"/>
        <path d="M166.44 392.15c-7.3 7.04-18.92 6.83-25.96-.47-7.04-7.3-6.83-18.92.47-25.96l80.83-81.3c7.3-7.04 18.92-6.83 25.96.47 7.04 7.3 6.83 18.92-.47 25.96l-80.83 81.3z" class="strategic-priorities-resource-mobilization_svg__st0"/>
        <path d="M133.4 373.26c-7.3 7.04-18.92 6.83-25.96-.47-7.04-7.3-6.83-18.92.47-25.96l47.57-48.05c7.3-7.04 18.92-6.83 25.96.47 7.04 7.3 6.83 18.92-.47 25.96l-47.57 48.05zM349.05 353.52c-.18 10.14 7.88 18.51 18.02 18.69s18.51-7.88 18.69-18.02l-.33-76.31-72.33-75.55c-10.98-11.47-29.37-11.28-40.12.41l-37.46 40.75c-12.77 13.89-34.41 14.69-48.17 1.78l52.48-88.33c27.45-22.2 65.99-24.46 95.84-5.63l71.44 45.07h34.7M58.18 195.64h59.65l34.54-25.22a72.411 72.411 0 0 1 62.42-11.2M58.18 347.68h23.99M405.83 347.68h35.99M370.01 106.42C336.98 80.43 295.3 64.92 250 64.92c-45.3 0-86.98 15.51-120.01 41.5" class="strategic-priorities-resource-mobilization_svg__st0"/>
    </g>
</svg>
