<svg xmlns="http://www.w3.org/2000/svg" viewBox="0 0 24 24" aria-hidden="true" fill="currentColor">
  <path fill-rule="evenodd" d="m15.063 12 .937.938-4 4-4-4L8.938 12 12 15.063 15.063 12Z" clip-rule="evenodd"/>
  <mask id="a" width="8" height="5" x="8" y="12" maskUnits="userSpaceOnUse" style="mask-type:luminance">
    <path fill-rule="evenodd" d="m15.063 12 .937.938-4 4-4-4L8.938 12 12 15.063 15.063 12Z" clip-rule="evenodd"/>
  </mask>
  <g mask="url(#a)">
    <path d="M-24-22h72v72h-72z"/>
  </g>
  <path fill-rule="evenodd" d="M8.938 11 8 10.062l4-4 4 4-.938.938L12 7.937 8.937 11Z" clip-rule="evenodd"/>
  <mask id="b" width="8" height="5" x="8" y="6" maskUnits="userSpaceOnUse" style="mask-type:luminance">
    <path fill-rule="evenodd" d="M8.938 11 8 10.062l4-4 4 4-.938.938L12 7.937 8.937 11Z" clip-rule="evenodd"/>
  </mask>
  <g mask="url(#b)">
    <path d="M48 45h-72v-72h72z"/>
  </g>
</svg>
