<svg xmlns="http://www.w3.org/2000/svg" aria-hidden="true" viewBox="0 0 24 24" fill="currentColor">
    <g clip-path="url(#a)">
        <path d="M1 14.5a6.496 6.496 0 0 1 3.064-5.519 8.001 8.001 0 0 1 15.872 0 6.5 6.5 0 0 1-2.936 12l-10 .02c-3.356-.275-6-3.079-6-6.5Zm15.848 4.487a4.5 4.5 0 0 0 2.03-8.309l-.807-.503-.12-.942a6 6 0 0 0-11.903 0l-.12.942-.805.503a4.5 4.5 0 0 0 2.029 8.31l.173.012h9.35l.173-.013ZM13 13v4h-2v-4H8l4-5 4 5h-3Z"/>
    </g>
    <defs>
        <clipPath id="a">
            <path d="M0 0h24v24H0z"/>
        </clipPath>
    </defs>
</svg>
