<svg xmlns="http://www.w3.org/2000/svg" viewBox="0 0 24 24" aria-hidden="true" fill="currentColor">
  <path fill-rule="evenodd" d="M8.637 12.89c.087.085.23.085.317.001l2.38-2.277v6.803c0 .33.266.583.611.583.346 0 .639-.254.639-.583V10.56l2.435 2.33c.088.084.23.084.317 0l.47-.45a.318.318 0 0 0 0-.434L12.215 8.57l-.059-.04c-.132-.063-.288-.063-.396.039l-3.594 3.437a.318.318 0 0 0 .001.435l.47.449ZM7.634 7.413h8.73c.36 0 .636-.264.636-.575v-.286c0-.312-.276-.551-.635-.551h-8.73C7.302 6 7 6.24 7 6.55v.287c0 .311.303.575.634.575Z" clip-rule="evenodd"/>
</svg>
