<svg xmlns="http://www.w3.org/2000/svg" viewBox="0 0 24 24" aria-hidden="true" fill="currentColor">
    <g clip-path="url(#a)">
        <path d="m18.815 18.616-5.306-5.02a.554.554 0 0 0-.707-.072 1.392 1.392 0 0 1-1.606 0 .555.555 0 0 0-.707.072l-5.305 5.02a.141.141 0 0 0 .1.24h13.43a.142.142 0 0 0 .14-.168.14.14 0 0 0-.04-.072Zm-6.53-6.474a.428.428 0 1 0 .857 0v-2.3a1.756 1.756 0 0 1 1.666-1.841 1.32 1.32 0 0 1 1.383 1.251.97.97 0 0 1-.92 1.017.683.683 0 0 1-.724-.654.429.429 0 0 0-.856.042 1.55 1.55 0 0 0 1.622 1.468 1.828 1.828 0 0 0 1.734-1.916 2.174 2.174 0 0 0-2.282-2.064 2.612 2.612 0 0 0-2.48 2.719v2.278ZM9.188 8.536a.429.429 0 0 0 .042-.856.705.705 0 0 1-.665-.74.985.985 0 0 1 1.03-.94 1.348 1.348 0 0 1 1.265 1.431v4.711a.425.425 0 1 0 .851 0v-4.69a2.197 2.197 0 0 0-2.073-2.307 1.838 1.838 0 0 0-1.923 1.752 1.56 1.56 0 0 0 1.473 1.639Z"/>
    </g>
    <defs>
        <clipPath id="a">
            <path d="M4 4h16v16H4z"/>
        </clipPath>
    </defs>
</svg>
